<mxfile host="www.draw.io" modified="2019-11-26T03:56:21.744Z" agent="Mozilla/5.0 (Windows NT 10.0; Win64; x64) AppleWebKit/537.36 (KHTML, like Gecko) Chrome/78.0.3904.108 Safari/537.36" etag="UeQwAl0MT2OWlqQlCyOz" version="12.3.0" type="github" pages="1">
  <diagram id="xomN25JMLdnJ_QrAI-wc" name="Page-1">
    <mxGraphModel dx="441" dy="266" grid="1" gridSize="10" guides="1" tooltips="1" connect="1" arrows="1" fold="1" page="1" pageScale="1" pageWidth="827" pageHeight="1169" math="0" shadow="0">
      <root>
        <mxCell id="0"/>
        <mxCell id="1" parent="0"/>
        <mxCell id="jfBKxEfQu9cr7d7Tc6k2-1" value="" style="shape=cube;whiteSpace=wrap;html=1;boundedLbl=1;backgroundOutline=1;darkOpacity=0.05;darkOpacity2=0.1;direction=south;size=7;fontFamily=Times New Roman;strokeColor=#00FF00;" parent="1" vertex="1">
          <mxGeometry x="190" y="618" width="410" height="42" as="geometry"/>
        </mxCell>
        <mxCell id="jfBKxEfQu9cr7d7Tc6k2-2" value="" style="shape=cube;whiteSpace=wrap;html=1;boundedLbl=1;backgroundOutline=1;darkOpacity=0.05;darkOpacity2=0.1;direction=south;size=15;fontFamily=Times New Roman;strokeColor=#00FF00;" parent="1" vertex="1">
          <mxGeometry x="194" y="527" width="406" height="50" as="geometry"/>
        </mxCell>
        <mxCell id="jfBKxEfQu9cr7d7Tc6k2-3" value="" style="endArrow=classic;html=1;fontFamily=Times New Roman;exitX=0.012;exitY=0.017;exitDx=0;exitDy=0;exitPerimeter=0;" parent="1" edge="1">
          <mxGeometry width="50" height="50" relative="1" as="geometry">
            <mxPoint x="341.19999999999993" y="635.884" as="sourcePoint"/>
            <mxPoint x="370" y="588" as="targetPoint"/>
          </mxGeometry>
        </mxCell>
        <mxCell id="jfBKxEfQu9cr7d7Tc6k2-5" value="&lt;i style=&quot;font-size: 13px;&quot;&gt;t&lt;sub style=&quot;font-size: 13px;&quot;&gt;i&lt;/sub&gt;&lt;/i&gt;" style="rounded=0;whiteSpace=wrap;html=1;dashed=1;fontFamily=Times New Roman;fontSize=13;strokeColor=#FF0000;strokeWidth=2;" parent="1" vertex="1">
          <mxGeometry x="341" y="626" width="100" height="34" as="geometry"/>
        </mxCell>
        <mxCell id="jfBKxEfQu9cr7d7Tc6k2-18" value="&lt;font style=&quot;font-size: 13px;&quot;&gt;卷积&lt;/font&gt;" style="text;html=1;resizable=0;points=[];autosize=1;align=left;verticalAlign=top;spacingTop=-4;fontFamily=Times New Roman;fontSize=13;" parent="1" vertex="1">
          <mxGeometry x="370" y="595" width="40" height="20" as="geometry"/>
        </mxCell>
        <mxCell id="jfBKxEfQu9cr7d7Tc6k2-20" value="" style="shape=cube;whiteSpace=wrap;html=1;boundedLbl=1;backgroundOutline=1;darkOpacity=0.05;darkOpacity2=0.1;direction=south;size=15;fontFamily=Times New Roman;fontSize=16;strokeColor=#00FF00;" parent="1" vertex="1">
          <mxGeometry x="301" y="437" width="210" height="60" as="geometry"/>
        </mxCell>
        <mxCell id="jfBKxEfQu9cr7d7Tc6k2-22" value="" style="rounded=0;whiteSpace=wrap;html=1;dashed=1;fontFamily=Times New Roman;fontSize=16;strokeColor=#FF0000;strokeWidth=2;" parent="1" vertex="1">
          <mxGeometry x="369" y="543" width="60" height="35" as="geometry"/>
        </mxCell>
        <mxCell id="jfBKxEfQu9cr7d7Tc6k2-23" value="" style="endArrow=none;dashed=1;html=1;fontFamily=Times New Roman;fontSize=16;strokeColor=#FF0000;strokeWidth=2;" parent="1" edge="1">
          <mxGeometry width="50" height="50" relative="1" as="geometry">
            <mxPoint x="398.5" y="578" as="sourcePoint"/>
            <mxPoint x="398.5" y="543" as="targetPoint"/>
          </mxGeometry>
        </mxCell>
        <mxCell id="jfBKxEfQu9cr7d7Tc6k2-27" value="&lt;font style=&quot;font-size: 13px;&quot;&gt;池化&lt;/font&gt;" style="text;html=1;resizable=0;points=[];autosize=1;align=left;verticalAlign=top;spacingTop=-4;fontFamily=Times New Roman;fontSize=13;" parent="1" vertex="1">
          <mxGeometry x="384" y="504" width="40" height="20" as="geometry"/>
        </mxCell>
        <mxCell id="jfBKxEfQu9cr7d7Tc6k2-28" value="&lt;i style=&quot;font-size: 13px;&quot;&gt;t&lt;sub style=&quot;font-size: 13px;&quot;&gt;i-1&lt;/sub&gt;&lt;/i&gt;" style="text;html=1;strokeColor=none;fillColor=none;align=center;verticalAlign=middle;whiteSpace=wrap;rounded=0;dashed=1;fontFamily=Times New Roman;fontSize=13;" parent="1" vertex="1">
          <mxGeometry x="337.5" y="633" width="40" height="20" as="geometry"/>
        </mxCell>
        <mxCell id="jfBKxEfQu9cr7d7Tc6k2-34" value="&lt;i style=&quot;font-size: 13px;&quot;&gt;t&lt;sub style=&quot;font-size: 13px;&quot;&gt;i&lt;/sub&gt;&lt;/i&gt;" style="text;html=1;strokeColor=none;fillColor=none;align=center;verticalAlign=middle;whiteSpace=wrap;rounded=0;dashed=1;fontFamily=Times New Roman;fontSize=13;" parent="1" vertex="1">
          <mxGeometry x="379" y="555" width="10" height="20" as="geometry"/>
        </mxCell>
        <mxCell id="GcitMClPT5unUkETLewl-24" value="&lt;i style=&quot;font-size: 13px;&quot;&gt;t&lt;sub style=&quot;font-size: 13px;&quot;&gt;i+1&lt;/sub&gt;&lt;/i&gt;" style="text;html=1;strokeColor=none;fillColor=none;align=center;verticalAlign=middle;whiteSpace=wrap;rounded=0;dashed=1;fontFamily=Times New Roman;fontSize=13;" parent="1" vertex="1">
          <mxGeometry x="409" y="557" width="10" height="20" as="geometry"/>
        </mxCell>
        <mxCell id="jfBKxEfQu9cr7d7Tc6k2-53" value="&lt;font style=&quot;font-size: 15px&quot;&gt;&lt;font style=&quot;font-size: 15px&quot;&gt;&lt;i&gt;&lt;span&gt;&amp;nbsp;r=(l&lt;/span&gt;&lt;sub&gt;1&lt;/sub&gt;&lt;span&gt;,l&lt;/span&gt;&lt;sub&gt;2&lt;/sub&gt;&lt;span&gt;,...,l&lt;/span&gt;&lt;span&gt;12&lt;/span&gt;&lt;/i&gt;&lt;/font&gt;&lt;i&gt;)&lt;/i&gt;&lt;/font&gt;" style="text;html=1;strokeColor=none;fillColor=none;align=center;verticalAlign=middle;whiteSpace=wrap;rounded=0;dashed=1;fontFamily=Times New Roman;" parent="1" vertex="1">
          <mxGeometry x="298.5" y="720" width="189" height="31" as="geometry"/>
        </mxCell>
        <mxCell id="GcitMClPT5unUkETLewl-4" value="" style="endArrow=none;dashed=1;html=1;entryX=0.3;entryY=0;entryDx=0;entryDy=0;entryPerimeter=0;exitX=0.307;exitY=1.035;exitDx=0;exitDy=0;exitPerimeter=0;fontFamily=Times New Roman;fontSize=18;strokeColor=#FF3333;strokeWidth=2;" parent="1" edge="1">
          <mxGeometry width="50" height="50" relative="1" as="geometry">
            <mxPoint x="374" y="660" as="sourcePoint"/>
            <mxPoint x="374" y="625" as="targetPoint"/>
          </mxGeometry>
        </mxCell>
        <mxCell id="GcitMClPT5unUkETLewl-5" value="" style="endArrow=none;dashed=1;html=1;entryX=0.3;entryY=0;entryDx=0;entryDy=0;entryPerimeter=0;fontFamily=Times New Roman;fontSize=18;strokeColor=#FF0000;strokeWidth=2;" parent="1" edge="1">
          <mxGeometry width="50" height="50" relative="1" as="geometry">
            <mxPoint x="406" y="660" as="sourcePoint"/>
            <mxPoint x="406" y="625" as="targetPoint"/>
          </mxGeometry>
        </mxCell>
        <mxCell id="GcitMClPT5unUkETLewl-14" value="" style="endArrow=classic;html=1;fontFamily=Times New Roman;exitX=0.99;exitY=-0.011;exitDx=0;exitDy=0;exitPerimeter=0;entryX=0.5;entryY=1;entryDx=0;entryDy=0;" parent="1" source="jfBKxEfQu9cr7d7Tc6k2-5" target="jfBKxEfQu9cr7d7Tc6k2-22" edge="1">
          <mxGeometry width="50" height="50" relative="1" as="geometry">
            <mxPoint x="352.19999999999993" y="645.884" as="sourcePoint"/>
            <mxPoint x="381" y="598" as="targetPoint"/>
          </mxGeometry>
        </mxCell>
        <mxCell id="GcitMClPT5unUkETLewl-15" value="" style="endArrow=classic;html=1;fillColor=#ffffff;fontFamily=Times New Roman;fontSize=18;exitX=-0.017;exitY=0.025;exitDx=0;exitDy=0;exitPerimeter=0;entryX=0.345;entryY=0.992;entryDx=0;entryDy=0;entryPerimeter=0;" parent="1" target="GcitMClPT5unUkETLewl-33" edge="1">
          <mxGeometry width="50" height="50" relative="1" as="geometry">
            <mxPoint x="368.9799999999999" y="546.1" as="sourcePoint"/>
            <mxPoint x="386" y="490" as="targetPoint"/>
          </mxGeometry>
        </mxCell>
        <mxCell id="GcitMClPT5unUkETLewl-16" value="" style="endArrow=classic;html=1;fillColor=#ffffff;fontFamily=Times New Roman;fontSize=18;entryX=1.011;entryY=0.438;entryDx=0;entryDy=0;entryPerimeter=0;exitX=0.998;exitY=-0.012;exitDx=0;exitDy=0;exitPerimeter=0;" parent="1" source="jfBKxEfQu9cr7d7Tc6k2-22" target="jfBKxEfQu9cr7d7Tc6k2-20" edge="1">
          <mxGeometry width="50" height="50" relative="1" as="geometry">
            <mxPoint x="520" y="530" as="sourcePoint"/>
            <mxPoint x="570" y="480" as="targetPoint"/>
          </mxGeometry>
        </mxCell>
        <mxCell id="GcitMClPT5unUkETLewl-26" value="&lt;i style=&quot;font-size: 13px;&quot;&gt;t&lt;sub style=&quot;font-size: 13px;&quot;&gt;i+1&lt;/sub&gt;&lt;/i&gt;" style="text;html=1;strokeColor=none;fillColor=none;align=center;verticalAlign=middle;whiteSpace=wrap;rounded=0;dashed=1;fontFamily=Times New Roman;fontSize=13;" parent="1" vertex="1">
          <mxGeometry x="418" y="634" width="10" height="20" as="geometry"/>
        </mxCell>
        <mxCell id="GcitMClPT5unUkETLewl-31" value="" style="shape=cube;whiteSpace=wrap;html=1;boundedLbl=1;backgroundOutline=1;darkOpacity=0.05;darkOpacity2=0.1;direction=south;size=9;fontFamily=Times New Roman;strokeColor=#7F00FF;" parent="1" vertex="1">
          <mxGeometry x="309" y="350" width="197" height="60" as="geometry"/>
        </mxCell>
        <mxCell id="GcitMClPT5unUkETLewl-32" value="" style="shape=cube;whiteSpace=wrap;html=1;boundedLbl=1;backgroundOutline=1;darkOpacity=0.05;darkOpacity2=0.1;direction=south;size=7;fontFamily=Times New Roman;strokeColor=#7F00FF;" parent="1" vertex="1">
          <mxGeometry x="351" y="264" width="110" height="60" as="geometry"/>
        </mxCell>
        <mxCell id="GcitMClPT5unUkETLewl-33" value="&lt;i style=&quot;font-size: 13px;&quot;&gt;t&lt;/i&gt;&lt;i style=&quot;font-size: 13px;&quot;&gt;&lt;sub style=&quot;font-size: 13px;&quot;&gt;(i+1)/2&lt;/sub&gt;&lt;/i&gt;" style="rounded=0;whiteSpace=wrap;html=1;dashed=1;fontFamily=Times New Roman;fontSize=13;strokeColor=#FF0000;strokeWidth=2;" parent="1" vertex="1">
          <mxGeometry x="353" y="453" width="100" height="43" as="geometry"/>
        </mxCell>
        <mxCell id="GcitMClPT5unUkETLewl-35" value="" style="endArrow=none;dashed=1;html=1;entryX=0.3;entryY=0;entryDx=0;entryDy=0;entryPerimeter=0;exitX=0.307;exitY=1.035;exitDx=0;exitDy=0;exitPerimeter=0;fontFamily=Times New Roman;fontSize=18;strokeColor=#FF0000;strokeWidth=2;" parent="1" edge="1">
          <mxGeometry width="50" height="50" relative="1" as="geometry">
            <mxPoint x="388.5" y="496" as="sourcePoint"/>
            <mxPoint x="388.5" y="449" as="targetPoint"/>
          </mxGeometry>
        </mxCell>
        <mxCell id="GcitMClPT5unUkETLewl-36" value="" style="endArrow=none;dashed=1;html=1;entryX=0.3;entryY=0;entryDx=0;entryDy=0;entryPerimeter=0;exitX=0.307;exitY=1.035;exitDx=0;exitDy=0;exitPerimeter=0;fontFamily=Times New Roman;fontSize=18;strokeColor=#FF0000;strokeWidth=2;" parent="1" edge="1">
          <mxGeometry width="50" height="50" relative="1" as="geometry">
            <mxPoint x="420.5" y="496" as="sourcePoint"/>
            <mxPoint x="420.5" y="449" as="targetPoint"/>
          </mxGeometry>
        </mxCell>
        <mxCell id="GcitMClPT5unUkETLewl-39" value="" style="rounded=0;whiteSpace=wrap;html=1;dashed=1;fontFamily=Times New Roman;fontSize=16;strokeColor=#FF0000;strokeWidth=2;" parent="1" vertex="1">
          <mxGeometry x="379" y="360" width="60" height="50" as="geometry"/>
        </mxCell>
        <mxCell id="GcitMClPT5unUkETLewl-40" value="" style="endArrow=none;dashed=1;html=1;exitX=0.307;exitY=1.035;exitDx=0;exitDy=0;exitPerimeter=0;fontFamily=Times New Roman;fontSize=18;strokeColor=#FF0000;strokeWidth=2;" parent="1" edge="1">
          <mxGeometry width="50" height="50" relative="1" as="geometry">
            <mxPoint x="408.5" y="410" as="sourcePoint"/>
            <mxPoint x="409" y="363" as="targetPoint"/>
          </mxGeometry>
        </mxCell>
        <mxCell id="GcitMClPT5unUkETLewl-42" value="" style="rounded=0;whiteSpace=wrap;html=1;dashed=1;fontFamily=Times New Roman;fontSize=16;strokeColor=#FF0000;strokeWidth=2;" parent="1" vertex="1">
          <mxGeometry x="388" y="272" width="30" height="52" as="geometry"/>
        </mxCell>
        <mxCell id="GcitMClPT5unUkETLewl-43" value="" style="endArrow=classic;html=1;strokeColor=#000000;strokeWidth=1;fillColor=#ffffff;fontFamily=Times New Roman;fontSize=18;entryX=0.026;entryY=1.025;entryDx=0;entryDy=0;entryPerimeter=0;" parent="1" edge="1">
          <mxGeometry width="50" height="50" relative="1" as="geometry">
            <mxPoint x="355" y="453" as="sourcePoint"/>
            <mxPoint x="379.55999999999995" y="411.25" as="targetPoint"/>
          </mxGeometry>
        </mxCell>
        <mxCell id="GcitMClPT5unUkETLewl-44" value="" style="endArrow=classic;html=1;strokeColor=#000000;strokeWidth=1;fillColor=#ffffff;fontFamily=Times New Roman;fontSize=18;entryX=0.5;entryY=1;entryDx=0;entryDy=0;exitX=0.991;exitY=-0.01;exitDx=0;exitDy=0;exitPerimeter=0;" parent="1" source="GcitMClPT5unUkETLewl-33" target="GcitMClPT5unUkETLewl-39" edge="1">
          <mxGeometry width="50" height="50" relative="1" as="geometry">
            <mxPoint x="456" y="454" as="sourcePoint"/>
            <mxPoint x="260" y="390" as="targetPoint"/>
          </mxGeometry>
        </mxCell>
        <mxCell id="GcitMClPT5unUkETLewl-45" value="" style="endArrow=classic;html=1;strokeColor=#000000;strokeWidth=1;fillColor=#ffffff;fontFamily=Times New Roman;fontSize=18;exitX=0.009;exitY=0.001;exitDx=0;exitDy=0;exitPerimeter=0;entryX=-0.024;entryY=1.013;entryDx=0;entryDy=0;entryPerimeter=0;" parent="1" source="GcitMClPT5unUkETLewl-39" target="GcitMClPT5unUkETLewl-42" edge="1">
          <mxGeometry width="50" height="50" relative="1" as="geometry">
            <mxPoint x="510" y="360" as="sourcePoint"/>
            <mxPoint x="560" y="310" as="targetPoint"/>
          </mxGeometry>
        </mxCell>
        <mxCell id="GcitMClPT5unUkETLewl-46" value="" style="endArrow=classic;html=1;strokeColor=#000000;strokeWidth=1;fillColor=#ffffff;fontFamily=Times New Roman;fontSize=18;exitX=1.021;exitY=0.006;exitDx=0;exitDy=0;exitPerimeter=0;entryX=1.007;entryY=0.388;entryDx=0;entryDy=0;entryPerimeter=0;" parent="1" source="GcitMClPT5unUkETLewl-39" target="GcitMClPT5unUkETLewl-32" edge="1">
          <mxGeometry width="50" height="50" relative="1" as="geometry">
            <mxPoint x="560" y="400" as="sourcePoint"/>
            <mxPoint x="610" y="350" as="targetPoint"/>
          </mxGeometry>
        </mxCell>
        <mxCell id="GcitMClPT5unUkETLewl-47" value="&lt;font style=&quot;font-size: 13px;&quot;&gt;卷积&lt;/font&gt;" style="text;html=1;resizable=0;points=[];autosize=1;align=left;verticalAlign=top;spacingTop=-4;fontFamily=Times New Roman;fontSize=13;" parent="1" vertex="1">
          <mxGeometry x="380" y="416" width="40" height="20" as="geometry"/>
        </mxCell>
        <mxCell id="GcitMClPT5unUkETLewl-48" value="&lt;font style=&quot;font-size: 13px;&quot;&gt;池化&lt;/font&gt;" style="text;html=1;resizable=0;points=[];autosize=1;align=left;verticalAlign=top;spacingTop=-4;fontFamily=Times New Roman;fontSize=13;" parent="1" vertex="1">
          <mxGeometry x="388.5" y="329" width="40" height="20" as="geometry"/>
        </mxCell>
        <mxCell id="GcitMClPT5unUkETLewl-51" value="&lt;font style=&quot;font-size: 13px;&quot;&gt;大小64*200&lt;/font&gt;" style="text;html=1;strokeColor=none;fillColor=none;align=center;verticalAlign=middle;whiteSpace=wrap;rounded=0;shadow=0;glass=0;comic=0;labelBackgroundColor=none;fontFamily=Times New Roman;fontSize=13;" parent="1" vertex="1">
          <mxGeometry x="469.5" y="492.5" width="92" height="35" as="geometry"/>
        </mxCell>
        <mxCell id="GcitMClPT5unUkETLewl-53" value="&lt;i style=&quot;font-size: 13px;&quot;&gt;t&lt;sub style=&quot;font-size: 13px;&quot;&gt;j&lt;/sub&gt;&lt;/i&gt;" style="text;html=1;strokeColor=none;fillColor=none;align=center;verticalAlign=middle;whiteSpace=wrap;rounded=0;shadow=0;glass=0;comic=0;labelBackgroundColor=none;fontFamily=Times New Roman;fontSize=13;" parent="1" vertex="1">
          <mxGeometry x="379" y="376" width="30" height="20" as="geometry"/>
        </mxCell>
        <mxCell id="GcitMClPT5unUkETLewl-54" value="&lt;i style=&quot;font-size: 13px;&quot;&gt;t&lt;sub style=&quot;font-size: 13px;&quot;&gt;j+1&lt;/sub&gt;&lt;/i&gt;" style="text;html=1;strokeColor=none;fillColor=none;align=center;verticalAlign=middle;whiteSpace=wrap;rounded=0;shadow=0;glass=0;comic=0;labelBackgroundColor=none;fontFamily=Times New Roman;fontSize=13;" parent="1" vertex="1">
          <mxGeometry x="404" y="376" width="40" height="20" as="geometry"/>
        </mxCell>
        <mxCell id="GcitMClPT5unUkETLewl-55" value="&lt;i style=&quot;font-size: 13px;&quot;&gt;t&lt;sub style=&quot;font-size: 13px;&quot;&gt;(j+1)/2&lt;/sub&gt;&lt;/i&gt;" style="text;html=1;fontSize=13;fontFamily=Times New Roman;" parent="1" vertex="1">
          <mxGeometry x="389" y="282" width="50" height="38" as="geometry"/>
        </mxCell>
        <mxCell id="GcitMClPT5unUkETLewl-58" value="" style="endArrow=classic;html=1;strokeColor=#000000;strokeWidth=1;fillColor=#ffffff;fontFamily=Times New Roman;fontSize=18;" parent="1" edge="1">
          <mxGeometry width="50" height="50" relative="1" as="geometry">
            <mxPoint x="361" y="266" as="sourcePoint"/>
            <mxPoint x="361" y="246" as="targetPoint"/>
          </mxGeometry>
        </mxCell>
        <mxCell id="GcitMClPT5unUkETLewl-59" value="" style="endArrow=classic;html=1;strokeColor=#000000;strokeWidth=1;fillColor=#ffffff;fontFamily=Times New Roman;fontSize=18;" parent="1" edge="1">
          <mxGeometry width="50" height="50" relative="1" as="geometry">
            <mxPoint x="376.9999999999998" y="266" as="sourcePoint"/>
            <mxPoint x="376.9999999999998" y="246" as="targetPoint"/>
          </mxGeometry>
        </mxCell>
        <mxCell id="GcitMClPT5unUkETLewl-60" value="" style="endArrow=classic;html=1;strokeColor=#000000;strokeWidth=1;fillColor=#ffffff;fontFamily=Times New Roman;fontSize=18;" parent="1" edge="1">
          <mxGeometry width="50" height="50" relative="1" as="geometry">
            <mxPoint x="452.99999999999966" y="266" as="sourcePoint"/>
            <mxPoint x="452.99999999999966" y="246" as="targetPoint"/>
          </mxGeometry>
        </mxCell>
        <mxCell id="GcitMClPT5unUkETLewl-61" value="&lt;i style=&quot;font-size: 14px;&quot;&gt;g&lt;sub style=&quot;font-size: 14px;&quot;&gt;1&lt;/sub&gt;&lt;/i&gt;" style="text;html=1;strokeColor=none;fillColor=none;align=center;verticalAlign=middle;whiteSpace=wrap;rounded=0;shadow=0;glass=0;comic=0;labelBackgroundColor=none;fontFamily=Times New Roman;fontSize=14;" parent="1" vertex="1">
          <mxGeometry x="344" y="229" width="30" height="20" as="geometry"/>
        </mxCell>
        <mxCell id="GcitMClPT5unUkETLewl-62" value="&lt;i style=&quot;font-size: 14px;&quot;&gt;g&lt;sub style=&quot;font-size: 14px;&quot;&gt;2&lt;br style=&quot;font-size: 14px;&quot;&gt;&lt;/sub&gt;&lt;/i&gt;" style="text;html=1;strokeColor=none;fillColor=none;align=center;verticalAlign=middle;whiteSpace=wrap;rounded=0;shadow=0;glass=0;comic=0;labelBackgroundColor=none;fontFamily=Times New Roman;fontSize=14;" parent="1" vertex="1">
          <mxGeometry x="369" y="229" width="19" height="20" as="geometry"/>
        </mxCell>
        <mxCell id="GcitMClPT5unUkETLewl-64" value="&lt;i style=&quot;font-size: 14px;&quot;&gt;g&lt;sub style=&quot;font-size: 14px;&quot;&gt;k&lt;br style=&quot;font-size: 14px;&quot;&gt;&lt;/sub&gt;&lt;/i&gt;" style="text;html=1;strokeColor=none;fillColor=none;align=center;verticalAlign=middle;whiteSpace=wrap;rounded=0;shadow=0;glass=0;comic=0;labelBackgroundColor=none;fontFamily=Times New Roman;fontSize=14;" parent="1" vertex="1">
          <mxGeometry x="444.5" y="229" width="17" height="20" as="geometry"/>
        </mxCell>
        <mxCell id="GcitMClPT5unUkETLewl-66" value="&lt;font style=&quot;font-size: 14px;&quot;&gt;...&lt;/font&gt;" style="text;html=1;strokeColor=none;fillColor=none;align=center;verticalAlign=middle;whiteSpace=wrap;rounded=0;shadow=0;glass=0;comic=0;labelBackgroundColor=none;fontFamily=Times New Roman;fontSize=14;" parent="1" vertex="1">
          <mxGeometry x="401.5" y="236" width="30" height="15" as="geometry"/>
        </mxCell>
        <mxCell id="GcitMClPT5unUkETLewl-67" value="&lt;font style=&quot;font-size: 13px;&quot;&gt;大小12*200&lt;/font&gt;" style="text;html=1;fontSize=13;fontFamily=Times New Roman;" parent="1" vertex="1">
          <mxGeometry x="478" y="584" width="101" height="40" as="geometry"/>
        </mxCell>
        <mxCell id="GcitMClPT5unUkETLewl-68" value="&lt;font style=&quot;font-size: 13px;&quot;&gt;大小64*100&lt;/font&gt;" style="text;html=1;strokeColor=none;fillColor=none;align=center;verticalAlign=middle;whiteSpace=wrap;rounded=0;shadow=0;glass=0;comic=0;labelBackgroundColor=none;fontFamily=Times New Roman;fontSize=13;" parent="1" vertex="1">
          <mxGeometry x="468" y="407" width="97" height="35" as="geometry"/>
        </mxCell>
        <mxCell id="GcitMClPT5unUkETLewl-69" value="&lt;font style=&quot;font-size: 13px;&quot;&gt;大小32*100&lt;/font&gt;" style="text;html=1;strokeColor=none;fillColor=none;align=center;verticalAlign=middle;whiteSpace=wrap;rounded=0;shadow=0;glass=0;comic=0;labelBackgroundColor=none;fontFamily=Times New Roman;fontSize=13;" parent="1" vertex="1">
          <mxGeometry x="468.5" y="315" width="97" height="35" as="geometry"/>
        </mxCell>
        <mxCell id="GcitMClPT5unUkETLewl-70" value="&lt;font style=&quot;font-size: 13px;&quot;&gt;大小32*50&lt;/font&gt;" style="text;html=1;strokeColor=none;fillColor=none;align=center;verticalAlign=middle;whiteSpace=wrap;rounded=0;shadow=0;glass=0;comic=0;labelBackgroundColor=none;fontFamily=Times New Roman;fontSize=13;" parent="1" vertex="1">
          <mxGeometry x="464.5" y="230.5" width="97" height="35" as="geometry"/>
        </mxCell>
        <mxCell id="2TXswu2r6WJ3RSh1Z9Y_-3" value="" style="shape=cube;whiteSpace=wrap;html=1;boundedLbl=1;backgroundOutline=1;darkOpacity=0.05;darkOpacity2=0.1;direction=south;size=7;fontFamily=Times New Roman;strokeColor=#00FF00;" vertex="1" parent="1">
          <mxGeometry x="181.5" y="1539" width="410" height="60" as="geometry"/>
        </mxCell>
        <mxCell id="2TXswu2r6WJ3RSh1Z9Y_-4" value="" style="shape=cube;whiteSpace=wrap;html=1;boundedLbl=1;backgroundOutline=1;darkOpacity=0.05;darkOpacity2=0.1;direction=south;size=15;fontFamily=Times New Roman;strokeColor=#00FF00;" vertex="1" parent="1">
          <mxGeometry x="185.5" y="1448" width="410" height="60" as="geometry"/>
        </mxCell>
        <mxCell id="2TXswu2r6WJ3RSh1Z9Y_-5" value="" style="endArrow=classic;html=1;fontFamily=Times New Roman;exitX=0.012;exitY=0.017;exitDx=0;exitDy=0;exitPerimeter=0;" edge="1" parent="1">
          <mxGeometry width="50" height="50" relative="1" as="geometry">
            <mxPoint x="332.6999999999998" y="1556.884" as="sourcePoint"/>
            <mxPoint x="361.5" y="1509" as="targetPoint"/>
          </mxGeometry>
        </mxCell>
        <mxCell id="2TXswu2r6WJ3RSh1Z9Y_-6" value="&lt;i style=&quot;font-size: 13px;&quot;&gt;t&lt;sub style=&quot;font-size: 13px;&quot;&gt;i&lt;/sub&gt;&lt;/i&gt;" style="rounded=0;whiteSpace=wrap;html=1;dashed=1;fontFamily=Times New Roman;fontSize=13;strokeColor=#FF0000;strokeWidth=2;" vertex="1" parent="1">
          <mxGeometry x="332.5" y="1547" width="100" height="52" as="geometry"/>
        </mxCell>
        <mxCell id="2TXswu2r6WJ3RSh1Z9Y_-7" value="&lt;font style=&quot;font-size: 13px;&quot;&gt;卷积&lt;/font&gt;" style="text;html=1;resizable=0;points=[];autosize=1;align=left;verticalAlign=top;spacingTop=-4;fontFamily=Times New Roman;fontSize=13;" vertex="1" parent="1">
          <mxGeometry x="361.5" y="1516" width="40" height="20" as="geometry"/>
        </mxCell>
        <mxCell id="2TXswu2r6WJ3RSh1Z9Y_-8" value="" style="shape=cube;whiteSpace=wrap;html=1;boundedLbl=1;backgroundOutline=1;darkOpacity=0.05;darkOpacity2=0.1;direction=south;size=15;fontFamily=Times New Roman;fontSize=16;strokeColor=#00FF00;" vertex="1" parent="1">
          <mxGeometry x="292.5" y="1358" width="210" height="60" as="geometry"/>
        </mxCell>
        <mxCell id="2TXswu2r6WJ3RSh1Z9Y_-9" value="" style="rounded=0;whiteSpace=wrap;html=1;dashed=1;fontFamily=Times New Roman;fontSize=16;strokeColor=#FF0000;strokeWidth=2;" vertex="1" parent="1">
          <mxGeometry x="360.5" y="1464" width="60" height="44" as="geometry"/>
        </mxCell>
        <mxCell id="2TXswu2r6WJ3RSh1Z9Y_-10" value="" style="endArrow=none;dashed=1;html=1;fontFamily=Times New Roman;fontSize=16;strokeColor=#FF0000;strokeWidth=2;" edge="1" parent="1">
          <mxGeometry width="50" height="50" relative="1" as="geometry">
            <mxPoint x="390" y="1509" as="sourcePoint"/>
            <mxPoint x="390" y="1464" as="targetPoint"/>
          </mxGeometry>
        </mxCell>
        <mxCell id="2TXswu2r6WJ3RSh1Z9Y_-11" value="&lt;font style=&quot;font-size: 13px;&quot;&gt;池化&lt;/font&gt;" style="text;html=1;resizable=0;points=[];autosize=1;align=left;verticalAlign=top;spacingTop=-4;fontFamily=Times New Roman;fontSize=13;" vertex="1" parent="1">
          <mxGeometry x="375.5" y="1425" width="40" height="20" as="geometry"/>
        </mxCell>
        <mxCell id="2TXswu2r6WJ3RSh1Z9Y_-12" value="&lt;i style=&quot;font-size: 13px;&quot;&gt;t&lt;sub style=&quot;font-size: 13px;&quot;&gt;i-1&lt;/sub&gt;&lt;/i&gt;" style="text;html=1;strokeColor=none;fillColor=none;align=center;verticalAlign=middle;whiteSpace=wrap;rounded=0;dashed=1;fontFamily=Times New Roman;fontSize=13;" vertex="1" parent="1">
          <mxGeometry x="328" y="1563" width="40" height="20" as="geometry"/>
        </mxCell>
        <mxCell id="2TXswu2r6WJ3RSh1Z9Y_-13" value="&lt;i style=&quot;font-size: 13px;&quot;&gt;t&lt;sub style=&quot;font-size: 13px;&quot;&gt;i&lt;/sub&gt;&lt;/i&gt;" style="text;html=1;strokeColor=none;fillColor=none;align=center;verticalAlign=middle;whiteSpace=wrap;rounded=0;dashed=1;fontFamily=Times New Roman;fontSize=13;" vertex="1" parent="1">
          <mxGeometry x="370.5" y="1476" width="10" height="20" as="geometry"/>
        </mxCell>
        <mxCell id="2TXswu2r6WJ3RSh1Z9Y_-14" value="&lt;i style=&quot;font-size: 13px;&quot;&gt;t&lt;sub style=&quot;font-size: 13px;&quot;&gt;i+1&lt;/sub&gt;&lt;/i&gt;" style="text;html=1;strokeColor=none;fillColor=none;align=center;verticalAlign=middle;whiteSpace=wrap;rounded=0;dashed=1;fontFamily=Times New Roman;fontSize=13;" vertex="1" parent="1">
          <mxGeometry x="400.5" y="1478" width="10" height="20" as="geometry"/>
        </mxCell>
        <mxCell id="2TXswu2r6WJ3RSh1Z9Y_-15" value="&lt;font style=&quot;font-size: 15px&quot;&gt;&lt;font style=&quot;font-size: 15px&quot;&gt;&lt;i&gt;&lt;span&gt;&amp;nbsp;r=(l&lt;/span&gt;&lt;sub&gt;1&lt;/sub&gt;&lt;span&gt;,l&lt;/span&gt;&lt;sub&gt;2&lt;/sub&gt;&lt;span&gt;,...,l&lt;/span&gt;&lt;span&gt;12&lt;/span&gt;&lt;/i&gt;&lt;/font&gt;&lt;i&gt;)&lt;/i&gt;&lt;/font&gt;" style="text;html=1;strokeColor=none;fillColor=none;align=center;verticalAlign=middle;whiteSpace=wrap;rounded=0;dashed=1;fontFamily=Times New Roman;" vertex="1" parent="1">
          <mxGeometry x="288" y="1601" width="189" height="31" as="geometry"/>
        </mxCell>
        <mxCell id="2TXswu2r6WJ3RSh1Z9Y_-16" value="" style="endArrow=none;dashed=1;html=1;entryX=0.3;entryY=0;entryDx=0;entryDy=0;entryPerimeter=0;exitX=0.307;exitY=1.035;exitDx=0;exitDy=0;exitPerimeter=0;fontFamily=Times New Roman;fontSize=18;strokeColor=#FF3333;strokeWidth=2;" edge="1" parent="1">
          <mxGeometry width="50" height="50" relative="1" as="geometry">
            <mxPoint x="365.5" y="1599.82" as="sourcePoint"/>
            <mxPoint x="365.5" y="1546" as="targetPoint"/>
          </mxGeometry>
        </mxCell>
        <mxCell id="2TXswu2r6WJ3RSh1Z9Y_-17" value="" style="endArrow=none;dashed=1;html=1;entryX=0.3;entryY=0;entryDx=0;entryDy=0;entryPerimeter=0;exitX=0.307;exitY=1.035;exitDx=0;exitDy=0;exitPerimeter=0;fontFamily=Times New Roman;fontSize=18;strokeColor=#FF0000;strokeWidth=2;" edge="1" parent="1">
          <mxGeometry width="50" height="50" relative="1" as="geometry">
            <mxPoint x="397.5" y="1599.82" as="sourcePoint"/>
            <mxPoint x="397.5" y="1546" as="targetPoint"/>
          </mxGeometry>
        </mxCell>
        <mxCell id="2TXswu2r6WJ3RSh1Z9Y_-18" value="" style="endArrow=classic;html=1;fontFamily=Times New Roman;exitX=0.99;exitY=-0.011;exitDx=0;exitDy=0;exitPerimeter=0;entryX=0.5;entryY=1;entryDx=0;entryDy=0;" edge="1" parent="1" source="2TXswu2r6WJ3RSh1Z9Y_-6" target="2TXswu2r6WJ3RSh1Z9Y_-9">
          <mxGeometry width="50" height="50" relative="1" as="geometry">
            <mxPoint x="343.69999999999993" y="1566.884" as="sourcePoint"/>
            <mxPoint x="372.5" y="1519" as="targetPoint"/>
          </mxGeometry>
        </mxCell>
        <mxCell id="2TXswu2r6WJ3RSh1Z9Y_-19" value="" style="endArrow=classic;html=1;fillColor=#ffffff;fontFamily=Times New Roman;fontSize=18;exitX=-0.017;exitY=0.025;exitDx=0;exitDy=0;exitPerimeter=0;entryX=0.345;entryY=0.992;entryDx=0;entryDy=0;entryPerimeter=0;" edge="1" parent="1" target="2TXswu2r6WJ3RSh1Z9Y_-24">
          <mxGeometry width="50" height="50" relative="1" as="geometry">
            <mxPoint x="360.48" y="1467.1" as="sourcePoint"/>
            <mxPoint x="377.5" y="1411" as="targetPoint"/>
          </mxGeometry>
        </mxCell>
        <mxCell id="2TXswu2r6WJ3RSh1Z9Y_-20" value="" style="endArrow=classic;html=1;fillColor=#ffffff;fontFamily=Times New Roman;fontSize=18;entryX=1.011;entryY=0.438;entryDx=0;entryDy=0;entryPerimeter=0;exitX=0.998;exitY=-0.012;exitDx=0;exitDy=0;exitPerimeter=0;" edge="1" parent="1" source="2TXswu2r6WJ3RSh1Z9Y_-9" target="2TXswu2r6WJ3RSh1Z9Y_-8">
          <mxGeometry width="50" height="50" relative="1" as="geometry">
            <mxPoint x="511.5" y="1451" as="sourcePoint"/>
            <mxPoint x="561.5" y="1401" as="targetPoint"/>
          </mxGeometry>
        </mxCell>
        <mxCell id="2TXswu2r6WJ3RSh1Z9Y_-21" value="&lt;i style=&quot;font-size: 13px;&quot;&gt;t&lt;sub style=&quot;font-size: 13px;&quot;&gt;i+1&lt;/sub&gt;&lt;/i&gt;" style="text;html=1;strokeColor=none;fillColor=none;align=center;verticalAlign=middle;whiteSpace=wrap;rounded=0;dashed=1;fontFamily=Times New Roman;fontSize=13;" vertex="1" parent="1">
          <mxGeometry x="409.5" y="1563" width="10" height="20" as="geometry"/>
        </mxCell>
        <mxCell id="2TXswu2r6WJ3RSh1Z9Y_-22" value="" style="shape=cube;whiteSpace=wrap;html=1;boundedLbl=1;backgroundOutline=1;darkOpacity=0.05;darkOpacity2=0.1;direction=south;size=9;fontFamily=Times New Roman;strokeColor=#7F00FF;" vertex="1" parent="1">
          <mxGeometry x="300.5" y="1271" width="197" height="60" as="geometry"/>
        </mxCell>
        <mxCell id="2TXswu2r6WJ3RSh1Z9Y_-23" value="" style="shape=cube;whiteSpace=wrap;html=1;boundedLbl=1;backgroundOutline=1;darkOpacity=0.05;darkOpacity2=0.1;direction=south;size=7;fontFamily=Times New Roman;strokeColor=#7F00FF;" vertex="1" parent="1">
          <mxGeometry x="342.5" y="1185" width="110" height="60" as="geometry"/>
        </mxCell>
        <mxCell id="2TXswu2r6WJ3RSh1Z9Y_-24" value="&lt;i style=&quot;font-size: 13px;&quot;&gt;t&lt;/i&gt;&lt;i style=&quot;font-size: 13px;&quot;&gt;&lt;sub style=&quot;font-size: 13px;&quot;&gt;(i+1)/2&lt;/sub&gt;&lt;/i&gt;" style="rounded=0;whiteSpace=wrap;html=1;dashed=1;fontFamily=Times New Roman;fontSize=13;strokeColor=#FF0000;strokeWidth=2;" vertex="1" parent="1">
          <mxGeometry x="344.5" y="1374" width="100" height="43" as="geometry"/>
        </mxCell>
        <mxCell id="2TXswu2r6WJ3RSh1Z9Y_-25" value="" style="endArrow=none;dashed=1;html=1;entryX=0.3;entryY=0;entryDx=0;entryDy=0;entryPerimeter=0;exitX=0.307;exitY=1.035;exitDx=0;exitDy=0;exitPerimeter=0;fontFamily=Times New Roman;fontSize=18;strokeColor=#FF0000;strokeWidth=2;" edge="1" parent="1">
          <mxGeometry width="50" height="50" relative="1" as="geometry">
            <mxPoint x="380" y="1417" as="sourcePoint"/>
            <mxPoint x="380" y="1370" as="targetPoint"/>
          </mxGeometry>
        </mxCell>
        <mxCell id="2TXswu2r6WJ3RSh1Z9Y_-26" value="" style="endArrow=none;dashed=1;html=1;entryX=0.3;entryY=0;entryDx=0;entryDy=0;entryPerimeter=0;exitX=0.307;exitY=1.035;exitDx=0;exitDy=0;exitPerimeter=0;fontFamily=Times New Roman;fontSize=18;strokeColor=#FF0000;strokeWidth=2;" edge="1" parent="1">
          <mxGeometry width="50" height="50" relative="1" as="geometry">
            <mxPoint x="412" y="1417" as="sourcePoint"/>
            <mxPoint x="412" y="1370" as="targetPoint"/>
          </mxGeometry>
        </mxCell>
        <mxCell id="2TXswu2r6WJ3RSh1Z9Y_-27" value="" style="rounded=0;whiteSpace=wrap;html=1;dashed=1;fontFamily=Times New Roman;fontSize=16;strokeColor=#FF0000;strokeWidth=2;" vertex="1" parent="1">
          <mxGeometry x="370.5" y="1281" width="60" height="50" as="geometry"/>
        </mxCell>
        <mxCell id="2TXswu2r6WJ3RSh1Z9Y_-28" value="" style="endArrow=none;dashed=1;html=1;exitX=0.307;exitY=1.035;exitDx=0;exitDy=0;exitPerimeter=0;fontFamily=Times New Roman;fontSize=18;strokeColor=#FF0000;strokeWidth=2;" edge="1" parent="1">
          <mxGeometry width="50" height="50" relative="1" as="geometry">
            <mxPoint x="400" y="1331" as="sourcePoint"/>
            <mxPoint x="400.5" y="1284" as="targetPoint"/>
          </mxGeometry>
        </mxCell>
        <mxCell id="2TXswu2r6WJ3RSh1Z9Y_-29" value="" style="rounded=0;whiteSpace=wrap;html=1;dashed=1;fontFamily=Times New Roman;fontSize=16;strokeColor=#FF0000;strokeWidth=2;" vertex="1" parent="1">
          <mxGeometry x="379.5" y="1193" width="30" height="52" as="geometry"/>
        </mxCell>
        <mxCell id="2TXswu2r6WJ3RSh1Z9Y_-30" value="" style="endArrow=classic;html=1;strokeColor=#000000;strokeWidth=1;fillColor=#ffffff;fontFamily=Times New Roman;fontSize=18;entryX=0.026;entryY=1.025;entryDx=0;entryDy=0;entryPerimeter=0;" edge="1" parent="1">
          <mxGeometry width="50" height="50" relative="1" as="geometry">
            <mxPoint x="346.5" y="1374" as="sourcePoint"/>
            <mxPoint x="371.05999999999995" y="1332.25" as="targetPoint"/>
          </mxGeometry>
        </mxCell>
        <mxCell id="2TXswu2r6WJ3RSh1Z9Y_-31" value="" style="endArrow=classic;html=1;strokeColor=#000000;strokeWidth=1;fillColor=#ffffff;fontFamily=Times New Roman;fontSize=18;entryX=0.5;entryY=1;entryDx=0;entryDy=0;exitX=0.991;exitY=-0.01;exitDx=0;exitDy=0;exitPerimeter=0;" edge="1" parent="1" source="2TXswu2r6WJ3RSh1Z9Y_-24" target="2TXswu2r6WJ3RSh1Z9Y_-27">
          <mxGeometry width="50" height="50" relative="1" as="geometry">
            <mxPoint x="447.5" y="1375" as="sourcePoint"/>
            <mxPoint x="251.5" y="1311" as="targetPoint"/>
          </mxGeometry>
        </mxCell>
        <mxCell id="2TXswu2r6WJ3RSh1Z9Y_-32" value="" style="endArrow=classic;html=1;strokeColor=#000000;strokeWidth=1;fillColor=#ffffff;fontFamily=Times New Roman;fontSize=18;exitX=0.009;exitY=0.001;exitDx=0;exitDy=0;exitPerimeter=0;entryX=-0.024;entryY=1.013;entryDx=0;entryDy=0;entryPerimeter=0;" edge="1" parent="1" source="2TXswu2r6WJ3RSh1Z9Y_-27" target="2TXswu2r6WJ3RSh1Z9Y_-29">
          <mxGeometry width="50" height="50" relative="1" as="geometry">
            <mxPoint x="501.5" y="1281" as="sourcePoint"/>
            <mxPoint x="551.5" y="1231" as="targetPoint"/>
          </mxGeometry>
        </mxCell>
        <mxCell id="2TXswu2r6WJ3RSh1Z9Y_-33" value="" style="endArrow=classic;html=1;strokeColor=#000000;strokeWidth=1;fillColor=#ffffff;fontFamily=Times New Roman;fontSize=18;exitX=1.021;exitY=0.006;exitDx=0;exitDy=0;exitPerimeter=0;entryX=1.007;entryY=0.388;entryDx=0;entryDy=0;entryPerimeter=0;" edge="1" parent="1" source="2TXswu2r6WJ3RSh1Z9Y_-27" target="2TXswu2r6WJ3RSh1Z9Y_-23">
          <mxGeometry width="50" height="50" relative="1" as="geometry">
            <mxPoint x="551.5" y="1321" as="sourcePoint"/>
            <mxPoint x="601.5" y="1271" as="targetPoint"/>
          </mxGeometry>
        </mxCell>
        <mxCell id="2TXswu2r6WJ3RSh1Z9Y_-34" value="&lt;font style=&quot;font-size: 13px;&quot;&gt;卷积&lt;/font&gt;" style="text;html=1;resizable=0;points=[];autosize=1;align=left;verticalAlign=top;spacingTop=-4;fontFamily=Times New Roman;fontSize=13;" vertex="1" parent="1">
          <mxGeometry x="371.5" y="1337" width="40" height="20" as="geometry"/>
        </mxCell>
        <mxCell id="2TXswu2r6WJ3RSh1Z9Y_-35" value="&lt;font style=&quot;font-size: 13px;&quot;&gt;池化&lt;/font&gt;" style="text;html=1;resizable=0;points=[];autosize=1;align=left;verticalAlign=top;spacingTop=-4;fontFamily=Times New Roman;fontSize=13;" vertex="1" parent="1">
          <mxGeometry x="380" y="1250" width="40" height="20" as="geometry"/>
        </mxCell>
        <mxCell id="2TXswu2r6WJ3RSh1Z9Y_-36" value="&lt;font style=&quot;font-size: 13px;&quot;&gt;大小64*200&lt;/font&gt;" style="text;html=1;strokeColor=none;fillColor=none;align=center;verticalAlign=middle;whiteSpace=wrap;rounded=0;shadow=0;glass=0;comic=0;labelBackgroundColor=none;fontFamily=Times New Roman;fontSize=13;" vertex="1" parent="1">
          <mxGeometry x="461" y="1413.5" width="92" height="35" as="geometry"/>
        </mxCell>
        <mxCell id="2TXswu2r6WJ3RSh1Z9Y_-37" value="&lt;i style=&quot;font-size: 13px;&quot;&gt;t&lt;sub style=&quot;font-size: 13px;&quot;&gt;j&lt;/sub&gt;&lt;/i&gt;" style="text;html=1;strokeColor=none;fillColor=none;align=center;verticalAlign=middle;whiteSpace=wrap;rounded=0;shadow=0;glass=0;comic=0;labelBackgroundColor=none;fontFamily=Times New Roman;fontSize=13;" vertex="1" parent="1">
          <mxGeometry x="370.5" y="1297" width="30" height="20" as="geometry"/>
        </mxCell>
        <mxCell id="2TXswu2r6WJ3RSh1Z9Y_-38" value="&lt;i style=&quot;font-size: 13px;&quot;&gt;t&lt;sub style=&quot;font-size: 13px;&quot;&gt;j+1&lt;/sub&gt;&lt;/i&gt;" style="text;html=1;strokeColor=none;fillColor=none;align=center;verticalAlign=middle;whiteSpace=wrap;rounded=0;shadow=0;glass=0;comic=0;labelBackgroundColor=none;fontFamily=Times New Roman;fontSize=13;" vertex="1" parent="1">
          <mxGeometry x="395.5" y="1297" width="40" height="20" as="geometry"/>
        </mxCell>
        <mxCell id="2TXswu2r6WJ3RSh1Z9Y_-39" value="&lt;i style=&quot;font-size: 13px;&quot;&gt;t&lt;sub style=&quot;font-size: 13px;&quot;&gt;(j+1)/2&lt;/sub&gt;&lt;/i&gt;" style="text;html=1;fontSize=13;fontFamily=Times New Roman;" vertex="1" parent="1">
          <mxGeometry x="380.5" y="1203" width="50" height="38" as="geometry"/>
        </mxCell>
        <mxCell id="2TXswu2r6WJ3RSh1Z9Y_-40" value="" style="endArrow=classic;html=1;strokeColor=#000000;strokeWidth=1;fillColor=#ffffff;fontFamily=Times New Roman;fontSize=18;" edge="1" parent="1">
          <mxGeometry width="50" height="50" relative="1" as="geometry">
            <mxPoint x="352.5" y="1187" as="sourcePoint"/>
            <mxPoint x="352.5" y="1167" as="targetPoint"/>
          </mxGeometry>
        </mxCell>
        <mxCell id="2TXswu2r6WJ3RSh1Z9Y_-41" value="" style="endArrow=classic;html=1;strokeColor=#000000;strokeWidth=1;fillColor=#ffffff;fontFamily=Times New Roman;fontSize=18;" edge="1" parent="1">
          <mxGeometry width="50" height="50" relative="1" as="geometry">
            <mxPoint x="368.4999999999998" y="1187" as="sourcePoint"/>
            <mxPoint x="368.4999999999998" y="1167" as="targetPoint"/>
          </mxGeometry>
        </mxCell>
        <mxCell id="2TXswu2r6WJ3RSh1Z9Y_-42" value="" style="endArrow=classic;html=1;strokeColor=#000000;strokeWidth=1;fillColor=#ffffff;fontFamily=Times New Roman;fontSize=18;" edge="1" parent="1">
          <mxGeometry width="50" height="50" relative="1" as="geometry">
            <mxPoint x="444.49999999999955" y="1187" as="sourcePoint"/>
            <mxPoint x="444.49999999999955" y="1167" as="targetPoint"/>
          </mxGeometry>
        </mxCell>
        <mxCell id="2TXswu2r6WJ3RSh1Z9Y_-43" value="&lt;i style=&quot;font-size: 14px;&quot;&gt;g&lt;sub style=&quot;font-size: 14px;&quot;&gt;1&lt;/sub&gt;&lt;/i&gt;" style="text;html=1;strokeColor=none;fillColor=none;align=center;verticalAlign=middle;whiteSpace=wrap;rounded=0;shadow=0;glass=0;comic=0;labelBackgroundColor=none;fontFamily=Times New Roman;fontSize=14;" vertex="1" parent="1">
          <mxGeometry x="335.5" y="1150" width="30" height="20" as="geometry"/>
        </mxCell>
        <mxCell id="2TXswu2r6WJ3RSh1Z9Y_-44" value="&lt;i style=&quot;font-size: 14px;&quot;&gt;g&lt;sub style=&quot;font-size: 14px;&quot;&gt;2&lt;br style=&quot;font-size: 14px;&quot;&gt;&lt;/sub&gt;&lt;/i&gt;" style="text;html=1;strokeColor=none;fillColor=none;align=center;verticalAlign=middle;whiteSpace=wrap;rounded=0;shadow=0;glass=0;comic=0;labelBackgroundColor=none;fontFamily=Times New Roman;fontSize=14;" vertex="1" parent="1">
          <mxGeometry x="360.5" y="1150" width="19" height="20" as="geometry"/>
        </mxCell>
        <mxCell id="2TXswu2r6WJ3RSh1Z9Y_-45" value="&lt;i style=&quot;font-size: 14px;&quot;&gt;g&lt;sub style=&quot;font-size: 14px;&quot;&gt;k&lt;br style=&quot;font-size: 14px;&quot;&gt;&lt;/sub&gt;&lt;/i&gt;" style="text;html=1;strokeColor=none;fillColor=none;align=center;verticalAlign=middle;whiteSpace=wrap;rounded=0;shadow=0;glass=0;comic=0;labelBackgroundColor=none;fontFamily=Times New Roman;fontSize=14;" vertex="1" parent="1">
          <mxGeometry x="436" y="1150" width="17" height="20" as="geometry"/>
        </mxCell>
        <mxCell id="2TXswu2r6WJ3RSh1Z9Y_-46" value="&lt;font style=&quot;font-size: 14px;&quot;&gt;...&lt;/font&gt;" style="text;html=1;strokeColor=none;fillColor=none;align=center;verticalAlign=middle;whiteSpace=wrap;rounded=0;shadow=0;glass=0;comic=0;labelBackgroundColor=none;fontFamily=Times New Roman;fontSize=14;" vertex="1" parent="1">
          <mxGeometry x="393" y="1157" width="30" height="15" as="geometry"/>
        </mxCell>
        <mxCell id="2TXswu2r6WJ3RSh1Z9Y_-47" value="&lt;font style=&quot;font-size: 13px;&quot;&gt;大小12*200&lt;/font&gt;" style="text;html=1;fontSize=13;fontFamily=Times New Roman;" vertex="1" parent="1">
          <mxGeometry x="469.5" y="1505" width="101" height="40" as="geometry"/>
        </mxCell>
        <mxCell id="2TXswu2r6WJ3RSh1Z9Y_-48" value="&lt;font style=&quot;font-size: 13px;&quot;&gt;大小64*100&lt;/font&gt;" style="text;html=1;strokeColor=none;fillColor=none;align=center;verticalAlign=middle;whiteSpace=wrap;rounded=0;shadow=0;glass=0;comic=0;labelBackgroundColor=none;fontFamily=Times New Roman;fontSize=13;" vertex="1" parent="1">
          <mxGeometry x="459.5" y="1328" width="97" height="35" as="geometry"/>
        </mxCell>
        <mxCell id="2TXswu2r6WJ3RSh1Z9Y_-49" value="&lt;font style=&quot;font-size: 13px;&quot;&gt;大小32*100&lt;/font&gt;" style="text;html=1;strokeColor=none;fillColor=none;align=center;verticalAlign=middle;whiteSpace=wrap;rounded=0;shadow=0;glass=0;comic=0;labelBackgroundColor=none;fontFamily=Times New Roman;fontSize=13;" vertex="1" parent="1">
          <mxGeometry x="460" y="1236" width="97" height="35" as="geometry"/>
        </mxCell>
        <mxCell id="2TXswu2r6WJ3RSh1Z9Y_-50" value="&lt;font style=&quot;font-size: 13px;&quot;&gt;大小32*50&lt;/font&gt;" style="text;html=1;strokeColor=none;fillColor=none;align=center;verticalAlign=middle;whiteSpace=wrap;rounded=0;shadow=0;glass=0;comic=0;labelBackgroundColor=none;fontFamily=Times New Roman;fontSize=13;" vertex="1" parent="1">
          <mxGeometry x="456" y="1151.5" width="97" height="35" as="geometry"/>
        </mxCell>
      </root>
    </mxGraphModel>
  </diagram>
</mxfile>
